<?xml version="1.0" encoding="UTF-8"?>
<svg width="28" height="28" version="1.1" viewBox="0 0 28 28" xmlns="http://www.w3.org/2000/svg" xmlns:cc="http://creativecommons.org/ns#" xmlns:dc="http://purl.org/dc/elements/1.1/" xmlns:rdf="http://www.w3.org/1999/02/22-rdf-syntax-ns#">
 <metadata>
  <rdf:RDF>
   <cc:Work rdf:about="">
    <dc:format>image/svg+xml</dc:format>
    <dc:type rdf:resource="http://purl.org/dc/dcmitype/StillImage"/>
    <dc:title>file_type_swagger</dc:title>
   </cc:Work>
  </rdf:RDF>
 </metadata>
 <title>file_type_swagger</title>
 <path d="m28 14.001a14 14 0 1 1-4.1-9.9 13.956 13.956 0 0 1 4.1 9.9z" fill="#17364f"/>
 <path d="m25.9 14.001a11.9 11.9 0 1 1-3.485-8.415 11.863 11.863 0 0 1 3.485 8.415z" fill="#6d9a00"/>
 <g fill="#17364f">
  <path d="m9.66 13.984a0.938 0.938 0 0 1 0.977-0.976 0.976 0.976 0 1 1-0.977 0.976z"/>
  <path d="m13.031 13.984a0.938 0.938 0 0 1 0.977-0.976 0.976 0.976 0 1 1-0.977 0.976z"/>
  <path d="m16.4 13.984a0.938 0.938 0 0 1 0.977-0.976 0.976 0.976 0 1 1-0.977 0.976z"/>
  <path d="m5.619 14.891v-1.748a2.824 2.824 0 0 0 0.881-0.142 1.126 1.126 0 0 0 0.439-0.441 2.1 2.1 0 0 0 0.254-0.776 9.08 9.08 0 0 0 0.055-1.216 10.547 10.547 0 0 1 0.123-1.97 1.847 1.847 0 0 1 0.446-0.9 1.72 1.72 0 0 1 0.81-0.552 4.788 4.788 0 0 1 1.316-0.131h0.363v1.437a3.177 3.177 0 0 0-0.977 0.091 0.63 0.63 0 0 0-0.319 0.277 3.372 3.372 0 0 0-0.1 0.941q0 0.459-0.062 1.741a4.639 4.639 0 0 1-0.178 1.169 2.435 2.435 0 0 1-0.367 0.739 2.939 2.939 0 0 1-0.682 0.6 2.432 2.432 0 0 1 0.662 0.579 2.377 2.377 0 0 1 0.394 0.8 5.8 5.8 0 0 1 0.178 1.267q0.048 1.209 0.048 1.544a3.034 3.034 0 0 0 0.11 0.932 0.694 0.694 0 0 0 0.333 0.288 2.927 2.927 0 0 0 0.963 0.1v1.486h-0.363a3.843 3.843 0 0 1-1.292-0.192 1.905 1.905 0 0 1-0.834-0.513 1.875 1.875 0 0 1-0.456-0.9 8.724 8.724 0 0 1-0.117-1.686 8.414 8.414 0 0 0-0.11-1.741 1.553 1.553 0 0 0-0.456-0.834 2.106 2.106 0 0 0-1.062-0.249z"/>
  <path d="m21.285 15.144a1.553 1.553 0 0 0-0.456 0.834 8.414 8.414 0 0 0-0.11 1.741 8.724 8.724 0 0 1-0.119 1.682 1.875 1.875 0 0 1-0.456 0.9 1.905 1.905 0 0 1-0.833 0.521 3.843 3.843 0 0 1-1.292 0.192h-0.363v-1.483a2.927 2.927 0 0 0 0.963-0.1 0.694 0.694 0 0 0 0.333-0.288 3.034 3.034 0 0 0 0.11-0.932q0-0.335 0.048-1.544a5.8 5.8 0 0 1 0.18-1.266 2.377 2.377 0 0 1 0.394-0.8 2.432 2.432 0 0 1 0.662-0.579 2.939 2.939 0 0 1-0.682-0.6 2.435 2.435 0 0 1-0.367-0.739 4.639 4.639 0 0 1-0.178-1.169q-0.062-1.282-0.062-1.741a3.372 3.372 0 0 0-0.1-0.941 0.63 0.63 0 0 0-0.319-0.277 3.177 3.177 0 0 0-0.977-0.091v-1.447h0.363a4.788 4.788 0 0 1 1.316 0.131 1.72 1.72 0 0 1 0.81 0.552 1.847 1.847 0 0 1 0.446 0.9 10.547 10.547 0 0 1 0.123 1.97 9.08 9.08 0 0 0 0.055 1.216 2.1 2.1 0 0 0 0.254 0.776 1.126 1.126 0 0 0 0.439 0.441 2.824 2.824 0 0 0 0.883 0.144v1.744a2.106 2.106 0 0 0-1.065 0.253z"/>
 </g>
</svg>
