<?xml version="1.0" encoding="UTF-8"?>
<!-- Created with Inkscape (http://www.inkscape.org/) -->
<svg width="121.29" height="119.29" version="1.1" viewBox="0 0 32.091 31.561" xmlns="http://www.w3.org/2000/svg" xmlns:cc="http://creativecommons.org/ns#" xmlns:dc="http://purl.org/dc/elements/1.1/" xmlns:rdf="http://www.w3.org/1999/02/22-rdf-syntax-ns#">
 <metadata>
  <rdf:RDF>
   <cc:Work rdf:about="">
    <dc:format>image/svg+xml</dc:format>
    <dc:type rdf:resource="http://purl.org/dc/dcmitype/StillImage"/>
    <dc:title/>
   </cc:Work>
  </rdf:RDF>
 </metadata>
 <g transform="translate(-11.849 -80.42)">
  <path d="m40.635 96.106a12.854 12.854 0 0 1-12.854 12.854 12.854 12.854 0 0 1-12.854-12.854 12.854 12.854 0 0 1 12.854-12.854 12.854 12.854 0 0 1 12.854 12.854z" fill="none" stroke="#fff" stroke-width="1.5"/>
  <g fill="#fff">
   <path d="m18.464 96.106a3.3073 3.3073 0 0 1-3.3073 3.3073 3.3073 3.3073 0 0 1-3.3073-3.3073 3.3073 3.3073 0 0 1 3.3073-3.3073 3.3073 3.3073 0 0 1 3.3073 3.3073z"/>
   <path d="m43.94 96.106a3.3073 3.3073 0 0 1-3.3073 3.3073 3.3073 3.3073 0 0 1-3.3073-3.3073 3.3073 3.3073 0 0 1 3.3073-3.3073 3.3073 3.3073 0 0 1 3.3073 3.3073z"/>
   <path d="m31.089 83.727a3.3073 3.3073 0 0 1-3.3073 3.3073 3.3073 3.3073 0 0 1-3.3073-3.3073 3.3073 3.3073 0 0 1 3.3073-3.3073 3.3073 3.3073 0 0 1 3.3073 3.3073z"/>
   <path d="m31.089 108.67a3.3073 3.3073 0 0 1-3.3073 3.3073 3.3073 3.3073 0 0 1-3.3073-3.3073 3.3073 3.3073 0 0 1 3.3073-3.3073 3.3073 3.3073 0 0 1 3.3073 3.3073z"/>
  </g>
  <g fill="none" stroke="#fff">
   <path transform="matrix(.70784 -.70638 .70784 .70638 0 0)" d="m-51.987 84.137h7.1671v7.028h-7.1671z" stroke-width="1.5"/>
   <g stroke-width=".75">
    <path d="m14.975 96.155h7.782"/>
    <path d="m32.805 96.056h7.593"/>
    <path d="m27.831 91.092v-4.107"/>
    <path d="m27.732 101.12 0.03666 8.0981"/>
   </g>
  </g>
 </g>
</svg>
