<?xml version="1.0" encoding="UTF-8" standalone="no"?>
<!-- Created with Inkscape (http://www.inkscape.org/) -->

<svg
   xmlns:dc="http://purl.org/dc/elements/1.1/"
   xmlns:cc="http://creativecommons.org/ns#"
   xmlns:rdf="http://www.w3.org/1999/02/22-rdf-syntax-ns#"
   xmlns:svg="http://www.w3.org/2000/svg"
   xmlns="http://www.w3.org/2000/svg"
   xmlns:sodipodi="http://sodipodi.sourceforge.net/DTD/sodipodi-0.dtd"
   xmlns:inkscape="http://www.inkscape.org/namespaces/inkscape"
   width="121.28738"
   height="119.28574"
   viewBox="0 0 32.090618 31.561018"
   version="1.1"
   id="svg8"
   inkscape:version="0.92.3 (2405546, 2018-03-11)"
   sodipodi:docname="logo.svg">
  <defs
     id="defs2" />
  <sodipodi:namedview
     id="base"
     pagecolor="#ffffff"
     bordercolor="#666666"
     borderopacity="1.0"
     inkscape:pageopacity="0.0"
     inkscape:pageshadow="2"
     inkscape:zoom="3.959798"
     inkscape:cx="70.168883"
     inkscape:cy="48.309126"
     inkscape:document-units="mm"
     inkscape:current-layer="layer1"
     showgrid="false"
     units="px"
     fit-margin-top="0"
     fit-margin-left="0"
     fit-margin-right="0"
     fit-margin-bottom="0"
     inkscape:window-width="1920"
     inkscape:window-height="1113"
     inkscape:window-x="1920"
     inkscape:window-y="1110"
     inkscape:window-maximized="1"
     inkscape:pagecheckerboard="true" />
  <metadata
     id="metadata5">
    <rdf:RDF>
      <cc:Work
         rdf:about="">
        <dc:format>image/svg+xml</dc:format>
        <dc:type
           rdf:resource="http://purl.org/dc/dcmitype/StillImage" />
        <dc:title></dc:title>
      </cc:Work>
    </rdf:RDF>
  </metadata>
  <g
     inkscape:label="Layer 1"
     inkscape:groupmode="layer"
     id="layer1"
     transform="translate(-11.849112,-80.419637)">
    <path
       style="fill:none;stroke:#ffffff;stroke-width:1.5;stroke-miterlimit:4;stroke-dasharray:none;stroke-opacity:1"
       d="m 40.635448,96.105652 a 12.8542,12.8542 0 0 1 -12.8542,12.854198 12.8542,12.8542 0 0 1 -12.8542,-12.854198 12.8542,12.8542 0 0 1 12.8542,-12.854201 12.8542,12.8542 0 0 1 12.8542,12.854201 z"
       id="path10" />
    <path
       style="fill:#ffffff;fill-opacity:1;stroke:none;stroke-width:3.19324732;stroke-miterlimit:4;stroke-dasharray:none;stroke-opacity:1"
       d="m 18.463695,96.105652 a 3.3072917,3.3072917 0 0 1 -3.307291,3.307292 3.3072917,3.3072917 0 0 1 -3.307292,-3.307292 3.3072917,3.3072917 0 0 1 3.307292,-3.307292 3.3072917,3.3072917 0 0 1 3.307291,3.307292 z"
       id="path4539" />
    <path
       style="fill:#ffffff;fill-opacity:1;stroke:none;stroke-width:3.19324732;stroke-miterlimit:4;stroke-dasharray:none;stroke-opacity:1"
       d="m 43.93973,96.105652 a 3.3072917,3.3072917 0 0 1 -3.307291,3.307292 3.3072917,3.3072917 0 0 1 -3.307292,-3.307292 3.3072917,3.3072917 0 0 1 3.307292,-3.307292 3.3072917,3.3072917 0 0 1 3.307291,3.307292 z"
       id="path4539-3" />
    <path
       style="fill:#ffffff;fill-opacity:1;stroke:none;stroke-width:3.19324732;stroke-miterlimit:4;stroke-dasharray:none;stroke-opacity:1"
       d="m 31.08854,83.726929 a 3.3072917,3.3072917 0 0 1 -3.307292,3.307291 3.3072917,3.3072917 0 0 1 -3.307292,-3.307291 3.3072917,3.3072917 0 0 1 3.307292,-3.307292 3.3072917,3.3072917 0 0 1 3.307292,3.307292 z"
       id="path4539-6" />
    <path
       style="fill:#ffffff;fill-opacity:1;stroke:none;stroke-width:3.19324732;stroke-miterlimit:4;stroke-dasharray:none;stroke-opacity:1"
       d="m 31.08854,108.67336 a 3.3072917,3.3072917 0 0 1 -3.307292,3.30729 3.3072917,3.3072917 0 0 1 -3.307292,-3.30729 3.3072917,3.3072917 0 0 1 3.307292,-3.30729 3.3072917,3.3072917 0 0 1 3.307292,3.30729 z"
       id="path4539-7" />
    <path
       style="fill:none;fill-opacity:1;stroke:#ffffff;stroke-width:1.50000161;stroke-miterlimit:4;stroke-dasharray:none;stroke-opacity:1"
       d="m -51.986786,84.137321 h 7.167145 v 7.027978 h -7.167145 z"
       id="rect4568"
       transform="matrix(0.7078368,-0.706376,0.7078368,0.706376,0,0)" />
    <path
       style="fill:none;fill-rule:evenodd;stroke:#ffffff;stroke-width:0.75;stroke-linecap:butt;stroke-linejoin:miter;stroke-opacity:1;stroke-miterlimit:4;stroke-dasharray:none"
       d="m 14.975297,96.154803 h 7.782035"
       id="path4587" />
    <path
       style="fill:none;fill-rule:evenodd;stroke:#ffffff;stroke-width:0.75;stroke-linecap:butt;stroke-linejoin:miter;stroke-opacity:1;stroke-miterlimit:4;stroke-dasharray:none"
       d="M 32.805162,96.056498 H 40.39821"
       id="path4589" />
    <path
       style="fill:none;fill-rule:evenodd;stroke:#ffffff;stroke-width:0.75;stroke-linecap:butt;stroke-linejoin:miter;stroke-opacity:1;stroke-miterlimit:4;stroke-dasharray:none"
       d="M 27.830501,91.092104 V 86.985069"
       id="path4591" />
    <path
       style="fill:none;fill-rule:evenodd;stroke:#ffffff;stroke-width:0.75;stroke-linecap:butt;stroke-linejoin:miter;stroke-opacity:1;stroke-miterlimit:4;stroke-dasharray:none"
       d="m 27.731993,101.1192 0.03666,8.09811"
       id="path4593" />
  </g>
</svg>
